<svg width="50" height="50" viewBox="0 0 50 50" fill="none" xmlns="http://www.w3.org/2000/svg">
<g filter="url(#filter0_d_1461_542)">
<rect x="5" y="5" width="40" height="40" rx="20" fill="white"/>
</g>
<path d="M25.0002 15C27.3591 15 29.6421 15.834 31.4456 17.3545C33.2492 18.875 34.4571 20.9841 34.856 23.3091C35.2549 25.6341 34.819 28.0252 33.6254 30.0599C32.4318 32.0946 30.5573 33.6418 28.3332 34.4281C26.1092 35.2144 23.6788 35.1891 21.4716 34.3568C19.2643 33.5244 17.4224 31.9386 16.2714 29.8796C15.1203 27.8205 14.7342 25.4209 15.1813 23.1047C15.6284 20.7885 16.8799 18.7049 18.7146 17.2222" fill="white"/>
<path d="M25.0002 15C27.3591 15 29.6421 15.834 31.4456 17.3545C33.2492 18.875 34.4571 20.9841 34.856 23.3091C35.2549 25.6341 34.819 28.0252 33.6254 30.0599C32.4318 32.0946 30.5573 33.6418 28.3332 34.4281C26.1092 35.2144 23.6788 35.1891 21.4716 34.3568C19.2643 33.5244 17.4224 31.9386 16.2714 29.8796C15.1203 27.8205 14.7342 25.4209 15.1813 23.1047C15.6284 20.7885 16.8799 18.7049 18.7146 17.2222" stroke="black" stroke-width="3" stroke-linecap="round" stroke-linejoin="round"/>
<path d="M15 16.6667H19.4444V21.1112" fill="black"/>
<path d="M15 16.6667H19.4444V21.1112" stroke="black" stroke-width="3" stroke-linecap="round" stroke-linejoin="round"/>
<defs>
<filter id="filter0_d_1461_542" x="0" y="0" width="50" height="50" filterUnits="userSpaceOnUse" color-interpolation-filters="sRGB">
<feFlood flood-opacity="0" result="BackgroundImageFix"/>
<feColorMatrix in="SourceAlpha" type="matrix" values="0 0 0 0 0 0 0 0 0 0 0 0 0 0 0 0 0 0 127 0" result="hardAlpha"/>
<feOffset/>
<feGaussianBlur stdDeviation="2.5"/>
<feComposite in2="hardAlpha" operator="out"/>
<feColorMatrix type="matrix" values="0 0 0 0 0 0 0 0 0 0 0 0 0 0 0 0 0 0 0.25 0"/>
<feBlend mode="normal" in2="BackgroundImageFix" result="effect1_dropShadow_1461_542"/>
<feBlend mode="normal" in="SourceGraphic" in2="effect1_dropShadow_1461_542" result="shape"/>
</filter>
</defs>
</svg>
